<svg width="725" height="548" viewBox="0 0 725 548" fill="none" xmlns="http://www.w3.org/2000/svg">
<g opacity="0.5">
<path d="M296.505 359.19L80.79 547.528H0L0.0257539 412.037L110.484 315.563L0.0257539 219.063L0 83.5972H80.79L296.505 271.936V359.19Z" fill="url(#paint0_linear_4049_6527)"/>
<path d="M686.342 318.756L582.141 409.719H543.845L543.871 344.948L597.722 297.895L543.871 250.817L543.845 186.072H582.141L686.342 277.009V318.756Z" fill="url(#paint1_linear_4049_6527)"/>
<path d="M396.945 310.438H343.299L343.325 220.119L417.625 155.219L343.325 90.319L343.299 0H396.945L541.424 126.143V183.651V184.295L396.945 310.438Z" fill="url(#paint2_linear_4049_6527)"/>
<path d="M479.202 483.272L405.392 547.734H378.659V502.201L417.136 468.618L378.659 435.009V389.502H405.392L479.202 453.938V483.272Z" fill="url(#paint3_linear_4049_6527)"/>
<path d="M724.2 136.419L670.117 183.651H650.879L650.904 150.635L679.362 125.782L650.904 100.93L650.879 67.9133H670.117L724.2 115.12V136.419Z" fill="url(#paint4_linear_4049_6527)"/>
<path d="M308.481 93.77L234.67 158.232H207.938V112.699L246.414 79.116L207.938 45.5072V0H234.67L308.481 64.4363V93.77Z" fill="url(#paint5_linear_4049_6527)"/>
</g>
<defs>
<linearGradient id="paint0_linear_4049_6527" x1="148.252" y1="83.5972" x2="148.252" y2="547.528" gradientUnits="userSpaceOnUse">
<stop stop-color="white"/>
<stop offset="1" stop-color="white" stop-opacity="0.2"/>
</linearGradient>
<linearGradient id="paint1_linear_4049_6527" x1="615.093" y1="186.072" x2="615.093" y2="409.719" gradientUnits="userSpaceOnUse">
<stop stop-color="white"/>
<stop offset="1" stop-color="white" stop-opacity="0.2"/>
</linearGradient>
<linearGradient id="paint2_linear_4049_6527" x1="442.362" y1="0" x2="442.362" y2="310.438" gradientUnits="userSpaceOnUse">
<stop stop-color="white"/>
<stop offset="1" stop-color="white" stop-opacity="0.2"/>
</linearGradient>
<linearGradient id="paint3_linear_4049_6527" x1="428.931" y1="389.502" x2="428.931" y2="547.734" gradientUnits="userSpaceOnUse">
<stop stop-color="white"/>
<stop offset="1" stop-color="white" stop-opacity="0.2"/>
</linearGradient>
<linearGradient id="paint4_linear_4049_6527" x1="687.539" y1="67.9133" x2="687.539" y2="183.651" gradientUnits="userSpaceOnUse">
<stop stop-color="white"/>
<stop offset="1" stop-color="white" stop-opacity="0.2"/>
</linearGradient>
<linearGradient id="paint5_linear_4049_6527" x1="258.209" y1="0" x2="258.209" y2="158.232" gradientUnits="userSpaceOnUse">
<stop stop-color="white"/>
<stop offset="1" stop-color="white" stop-opacity="0.2"/>
</linearGradient>
</defs>
</svg>
